<?xml version="1.0"?>
<svg xmlns="http://www.w3.org/2000/svg" viewBox="0 0 512 512" width="512" height="512"><g id="filled_outline" data-name="filled outline"><path d="M488,272l-13.27,14.74a282.025,282.025,0,0,1-144.12,85.65L264,388.29v2.56l55.76,4.56A153.611,153.611,0,0,1,415.9,439.9L432,456H399.6a153.609,153.609,0,0,1-86.86-26.91L264,395.68V488a8,8,0,0,1-8,8,7.851,7.851,0,0,1-4-1.08,7.969,7.969,0,0,1-4-6.92V395.68l-8,5.48-40.74,27.93A153.609,153.609,0,0,1,112.4,456H80l16.1-16.1a153.611,153.611,0,0,1,96.14-44.49L248,390.85v-2.56l-66.61-15.9A282.025,282.025,0,0,1,37.27,286.74L25.91,274.12,24,272l48.25,10.34a282.034,282.034,0,0,1,115.04,53.92l41.51,32.59L248,383.92V381.3l-62.27-69.24A341.967,341.967,0,0,1,100.79,126.7c-.27-2.08-.51-4.16-.74-6.25L100,120l6.28,4.78A341.993,341.993,0,0,1,224.82,292.69l11.88,37.14L248,365.18V348L228.47,240.57A361.981,361.981,0,0,1,252,32.98q1.92-4.455,3.95-8.87L256,24l.05.11a361.971,361.971,0,0,1,27.48,216.46L267.3,329.83,264,348v17.18l23.18-72.49A342.094,342.094,0,0,1,403.2,126.71c.84-.64,1.68-1.29,2.52-1.93L412,120a343.384,343.384,0,0,1-86.03,192.39L275.2,368.85,264,381.3v2.62l60.71-47.66a282.034,282.034,0,0,1,115.04-53.92l38.34-8.22Z" style="fill:#45ef6b"/><path d="M478.09,274.12l-11.36,12.62a282.025,282.025,0,0,1-144.12,85.65L256,388.29v2.56l55.76,4.56A153.611,153.611,0,0,1,407.9,439.9L424,456H399.6a153.609,153.609,0,0,1-86.86-26.91L264,395.68v5.48l-8-5.48V488a7.969,7.969,0,0,1-4,6.92,7.969,7.969,0,0,1-4-6.92V395.68l-8,5.48v-5.48l-48.74,33.41A153.609,153.609,0,0,1,104.4,456H80l16.1-16.1a153.611,153.611,0,0,1,96.14-44.49L248,390.85v-2.56l-66.61-15.9A282.025,282.025,0,0,1,37.27,286.74L25.91,274.12l38.34,8.22a282.034,282.034,0,0,1,115.04,53.92L240,383.92V381.3l-11.2-12.45L248,383.92V381.3l-62.27-69.24A341.967,341.967,0,0,1,100.79,126.7,342.029,342.029,0,0,1,216.82,292.69L240,365.18V348l-3.3-18.17L248,365.18V348L228.47,240.57A361.981,361.981,0,0,1,252,32.98a361.981,361.981,0,0,1,23.53,207.59L256,348v17.18l11.3-35.35L264,348v17.18l23.18-72.49A342.094,342.094,0,0,1,403.2,126.71a343.364,343.364,0,0,1-85.23,185.68L256,381.3v2.62l19.2-15.07L264,381.3v2.62l60.71-47.66a282.034,282.034,0,0,1,115.04-53.92Z" style="fill:#027226"/><path d="M31.324,292.1a288.736,288.736,0,0,0,148.21,88.072l25.746,6.147-13.695,1.119A161.8,161.8,0,0,0,90.446,434.241l-16.1,16.1A8,8,0,0,0,80,464h32.4a160.975,160.975,0,0,0,91.385-28.312L248,405.382V488a8,8,0,0,0,16,0V405.382l44.215,30.306A160.975,160.975,0,0,0,399.6,464H432a8,8,0,0,0,5.657-13.657l-16.1-16.1a161.8,161.8,0,0,0-101.139-46.807l-13.695-1.119,25.746-6.147A288.736,288.736,0,0,0,480.676,292.1l13.27-14.744a8,8,0,0,0-7.622-13.174l-48.246,10.338a291.756,291.756,0,0,0-114.561,52.567l8.4-9.34a351.386,351.386,0,0,0,88.037-196.876,8,8,0,0,0-12.8-7.231l-6.283,4.784A348.088,348.088,0,0,0,285.94,272.052L291.4,242A368.185,368.185,0,0,0,263.311,20.749l-.054-.115a8,8,0,0,0-14.514,0l-.06.128A368.173,368.173,0,0,0,220.6,242l5.464,30.051A348.088,348.088,0,0,0,111.13,118.42l-6.283-4.784a8,8,0,0,0-12.8,7.234l.049.443a349.994,349.994,0,0,0,87.688,196.1l8.7,9.675A291.741,291.741,0,0,0,73.922,274.516L25.676,264.178a8,8,0,0,0-7.622,13.174ZM194.739,422.49A145.038,145.038,0,0,1,112.4,448H99.313l2.446-2.446a145.8,145.8,0,0,1,91.129-42.173l33.753-2.757Zm124.373-19.109a145.8,145.8,0,0,1,91.129,42.173L412.687,448H399.6a145.038,145.038,0,0,1-82.339-25.51l-31.9-21.866Zm10.541-60.828A275.538,275.538,0,0,1,441.43,290.161l24.041-5.152a272.746,272.746,0,0,1-136.721,79.6l-39.074,9.329ZM294.8,295.129A332.234,332.234,0,0,1,401.382,138.4a335.43,335.43,0,0,1-81.363,168.65l-45.047,50.093ZM256,44.188a352.028,352.028,0,0,1,19.662,194.951L256,347.279l-19.662-108.14A352.018,352.018,0,0,1,256,44.188ZM110.581,138.365A332.233,332.233,0,0,1,217.2,295.129l19.829,62.009-45.346-50.427A331.806,331.806,0,0,1,110.581,138.365ZM70.57,290.161a275.538,275.538,0,0,1,111.777,52.392l39.977,31.382-39.074-9.329a272.746,272.746,0,0,1-136.721-79.6Z"/></g></svg>
