<svg id="Capa_1" enable-background="new 0 0 512 512" height="512" viewBox="0 0 512 512" width="512" xmlns="http://www.w3.org/2000/svg"><g><path d="m421 7.5-60 248.5 60 248.5h30v-497z" fill="#8ae7ff"/><path d="m421 256v-248.5h-360v497h360v-30l-60-82.959z" fill="#c4f3ff"/><path d="m391 257.082-50 108.168 50 109.25h30v-218.5c-10.661 0-20.628.378-30 1.082z" fill="#ffe7b5"/><path d="m91 346v128.5h300v-217.418c-135.684 10.175-145.661 88.918-300 88.918z" fill="#fff"/><path d="m451 97.5h-30v30h30c8.284 0 15-6.716 15-15s-6.716-15-15-15z" fill="#c4f3ff"/><path d="m436 112.5c0-8.284-6.716-15-15-15h-360c-8.284 0-15 6.716-15 15s6.716 15 15 15h360c8.284 0 15-6.716 15-15z" fill="#fff"/><path d="m61 37.5h390" fill="none" stroke="#ff3e3a" stroke-linejoin="round" stroke-miterlimit="10" stroke-width="15"/><circle cx="121" cy="376" r="7.5"/><circle cx="391" cy="414.5" r="7.5"/><circle cx="361" cy="444.5" r="7.5"/><path d="m83.5 474.5c0 4.142 3.357 7.5 7.5 7.5h330c4.143 0 7.5-3.358 7.5-7.5v-218.5c0-4.142-3.357-7.5-7.5-7.5-84.412 0-127.206 23.342-168.592 45.916-41.562 22.67-80.82 44.084-161.408 44.084-4.143 0-7.5 3.358-7.5 7.5zm15-121.062c79.488-1.339 120.949-23.958 161.092-45.853 40.251-21.956 78.348-42.732 153.908-44.021v203.436h-315z"/><path d="m458.5 91.29v-83.79c0-4.142-3.357-7.5-7.5-7.5h-390c-4.143 0-7.5 3.358-7.5 7.5v83.79c-8.729 3.096-15 11.433-15 21.21 0 9.778 6.27 18.12 15 21.215v370.785c0 4.142 3.357 7.5 7.5 7.5h390c4.143 0 7.5-3.358 7.5-7.5v-370.785c8.73-3.095 15-11.437 15-21.215 0-9.777-6.271-18.114-15-21.21zm-15-76.29v75h-375v-75zm7.5 105h-360c-4.143 0-7.5 3.358-7.5 7.5s3.357 7.5 7.5 7.5h352.5v362h-375v-369.5c0-4.142-3.357-7.5-7.5-7.5-4.136 0-7.5-3.364-7.5-7.5s3.364-7.5 7.5-7.5h390c4.136 0 7.5 3.364 7.5 7.5s-3.364 7.5-7.5 7.5z"/></g></svg>