<svg id="Filled" height="512" viewBox="0 0 512 512" width="512" xmlns="http://www.w3.org/2000/svg"><path d="m312 88v288h-112v-288l40-16v-48h32v48z" fill="#e9eef2"/><path d="m312 88v128h-112v-128l40-16v-48h32v48z" fill="#3397e8"/><path d="m232 248h48v208h-48z" fill="#9aa3a8"/><path d="m184 376h144v32h-144z" fill="#c3c6c7"/><path d="m184 456h144v32h-144z" fill="#c3c6c7"/><path d="m200 216h112v32h-112z" fill="#6a7073"/><path d="m328 416a8 8 0 0 0 8-8v-32a8 8 0 0 0 -8-8h-8v-280a8 8 0 0 0 -5.029-7.428l-34.971-13.989v-42.583a8 8 0 0 0 -8-8h-32a8 8 0 0 0 -8 8v42.583l-34.971 13.989a8 8 0 0 0 -5.029 7.428v280h-8a8 8 0 0 0 -8 8v32a8 8 0 0 0 8 8h40v32h-40a8 8 0 0 0 -8 8v32a8 8 0 0 0 8 8h144a8 8 0 0 0 8-8v-32a8 8 0 0 0 -8-8h-40v-32zm-40-48v-16h16v16zm16-32h-16v-16h16zm0-32h-16v-16h16zm0-32h-16v-16h16zm0-32h-96v-16h96zm-32 16v48h-8a8 8 0 0 0 0 16h8v48h-32v-112zm-29.029-176.572a8 8 0 0 0 5.029-7.428v-40h16v40a8 8 0 0 0 5.029 7.428l34.971 13.988v18.584h-40a8 8 0 0 0 0 16h40v16h-24a8 8 0 0 0 0 16h24v16h-40a8 8 0 0 0 0 16h40v16h-96v-114.584zm-34.971 176.572h16v112h-16zm-16 128h128v16h-128zm128 96h-128v-16h128zm-48-32h-32v-32h32z"/></svg>